<svg id="visual" viewBox="0 0 1250 400" width="1250" height="400" xmlns="http://www.w3.org/2000/svg" xmlns:xlink="http://www.w3.org/1999/xlink" version="1.1"><path d="M0 319L34.7 317.8C69.3 316.7 138.7 314.3 208.2 301.3C277.7 288.3 347.3 264.7 416.8 263.5C486.3 262.3 555.7 283.7 625 297.8C694.3 312 763.7 319 833.2 318.3C902.7 317.7 972.3 309.3 1041.8 297.2C1111.3 285 1180.7 269 1215.3 261L1250 253L1250 401L1215.3 401C1180.7 401 1111.3 401 1041.8 401C972.3 401 902.7 401 833.2 401C763.7 401 694.3 401 625 401C555.7 401 486.3 401 416.8 401C347.3 401 277.7 401 208.2 401C138.7 401 69.3 401 34.7 401L0 401Z" fill="#0066FF" stroke-linecap="round" stroke-linejoin="miter"></path></svg>